
<svg xmlns="http://www.w3.org/2000/svg" width="1024" height="1024" viewBox="0 0 1024 1024">
  <g fill="none" fill-rule="evenodd">
    <path d="M512 1024c282.77 0 512-229.23 512-512S794.77 0 512 0 0 229.23 0 512s229.23 512 512 512z" fill="none"/>
    <path d="M512 900c214.3 0 388-173.7 388-388S726.3 124 512 124 124 297.7 124 512s173.7 388 388 388z" fill="none"/>
    <path d="M512 256c-141.385 0-256 114.615-256 256s114.615 256 256 256 256-114.615 256-256S653.385 256 512 256z" fill="url(#paint0_linear)"/>
    <defs>
      <linearGradient id="paint0_linear" x1="256" x2="768" y1="512" y2="512" gradientUnits="userSpaceOnUse">
        <stop stop-color="#005EB8"/>
        <stop offset="1" stop-color="#004080"/>
      </linearGradient>
    </defs>
    <path d="M380 470h300c20 0 30 10 30 30v100c0 20-10 30-30 30H380c-20 0-30-10-30-30V500c0-20 10-30 30-30z" fill="#E01E26"/>
    <path d="M340 530h60v40h-60z" fill="#E01E26"/>
    <path d="M440 650h140c0 33 27 60 60 60s60-27 60-60h80c11 0 20-9 20-20V520c0-4-1-8-4-11l-80-104c-4-5-10-8-16-8l-100-16c-8-1-14-7-16-15l-8-45c-2-8-9-14-18-14H380c-17 0-30 13-30 30s13 30 30 30h70c8 0 15 7 15 15v15c0 8-7 15-15 15h-60c-8 0-15 7-15 15v10c0 8 7 15 15 15h50c8 0 15 7 15 15v10c0 8-7 15-15 15h-60c-8 0-15 7-15 15v15c0 8 7 15 15 15h70c8 0 15 7 15 15v30c0 8-7 15-15 15h-10c-8 0-15 7-15 15v10c0 8 7 15 15 15z" fill="#E01E26"/>
    <text x="290" y="860" font-family="Arial, sans-serif" font-size="120" font-weight="bold" fill="#005EB8">DISTRI</text>
    <text x="700" y="860" font-family="Arial, sans-serif" font-size="120" font-weight="bold" fill="#E01E26">APP</text>
  </g>
</svg>
